#!Matlab matrix to amc conversion
:FULLY-SPECIFIED
:DEGREES
16
root 9.192140 16.357400 -29.724600 0.843292 1.634016 -0.111560
lowerback -2.268897 1.329485 -0.455820
upperback -3.659148 1.703619 -0.957974
thorax -2.317918 0.849930 -0.625385
lowerneck -14.924885 0.082956 -0.596307
upperneck 38.641079 0.105242 0.305638
head 16.823371 0.045278 0.305802
rclavicle -0.000000 0.000000
rhumerus -42.527085 -12.742446 -74.056151
rradius 26.167745
rwrist -7.948372
rhand -4.357288 12.847833
rfingers 7.125020
rthumb 21.395667 -15.847746
lclavicle -0.000000 0.000000
lhumerus -34.931389 19.291683 67.322902
lradius 47.675810
lwrist 0.885607
lhand -3.329594 20.035565
lfingers 7.125020
lthumb 22.381471 48.697071
rfemur -30.682816 2.165424 21.233080
rtibia 47.942397
rfoot -11.737234 -18.535452
rtoes -9.667922
lfemur -15.656571 -10.275823 -25.117909
ltibia 28.562483
lfoot -23.269777 18.129556
ltoes 3.154631
17
root 9.191770 16.245600 -29.440800 0.890766 1.634016 -0.137184
lowerback -2.095672 1.223312 -0.344635
upperback -3.540260 1.548720 -0.556675
thorax -2.290898 0.775114 -0.300057
lowerneck -14.833030 0.122762 -0.457068
upperneck 38.469430 0.179287 0.134066
head 16.693042 0.075758 0.208868
rclavicle -0.000000 0.000000
rhumerus -42.680341 -12.865270 -73.699340
rradius 26.500444
rwrist -8.511622
rhand -4.702034 12.890154
rfingers 7.125020
rthumb 21.061849 -15.852936
lclavicle -0.000000 0.000000
lhumerus -33.082516 17.497976 69.409356
lradius 50.438166
lwrist 0.902270
lhand -3.603648 19.353657
lfingers 7.125020
lthumb 22.112141 48.038402
rfemur -33.719048 2.377452 21.405593
rtibia 44.539987
rfoot -14.119236 -20.192709
rtoes -8.779947
lfemur -13.668185 -10.862748 -25.123622
ltibia 27.672993
lfoot -24.509148 18.672003
ltoes 3.521445
18
root 9.208550 16.156600 -29.151500 1.411166 1.634016 -0.009962
lowerback -2.786069 0.805258 -1.084760
upperback -3.736912 1.018685 -0.299694
thorax -2.167791 0.535090 0.356641
lowerneck -15.027566 0.162512 -0.336766
upperneck 38.402113 0.277185 -0.069210
head 16.740986 0.107409 0.098693
rclavicle -0.000000 0.000000
rhumerus -42.846636 -14.321924 -72.240092
rradius 25.791062
rwrist -7.040197
rhand -4.650480 12.876537
rfingers 7.125020
rthumb 21.113375 -15.902779
lclavicle -0.000000 0.000000
lhumerus -32.740023 16.747802 69.640954
lradius 51.415013
lwrist 0.959056
lhand -3.685886 19.610013
lfingers 7.125020
lthumb 22.041676 48.303939
rfemur -35.622653 7.000619 17.035595
rtibia 37.048850
rfoot -17.586105 -22.955359
rtoes -6.734003
lfemur -10.640469 -10.910497 -25.507225
ltibia 23.013812
lfoot -22.617722 18.940773
ltoes 0.657372
19
root 9.222000 16.080900 -28.855000 1.841927 1.634016 0.026211
lowerback -3.467534 0.404066 -1.771754
upperback -3.924826 0.503700 -0.065635
thorax -2.043979 0.303054 0.998212
lowerneck -15.220611 0.201948 -0.223690
upperneck 38.337988 0.375270 -0.272207
head 16.789769 0.138937 -0.005999
rclavicle -0.000000 0.000000
rhumerus -43.014849 -15.686400 -70.932957
rradius 25.087440
rwrist -5.669546
rhand -4.596689 12.902145
rfingers 7.125020
rthumb 21.166783 -15.900043
lclavicle -0.000000 0.000000
lhumerus -32.419580 16.018284 69.867676
lradius 52.329437
lwrist 1.004228
lhand -3.760679 19.827201
lfingers 7.125020
lthumb 21.978181 48.531729
rfemur -37.471311 10.941257 13.449405
rtibia 30.560362
rfoot -20.500448 -25.348778
rtoes -4.990633
lfemur -7.700698 -10.964931 -25.869844
ltibia 19.190293
lfoot -20.901824 19.207883
ltoes -1.662401
20
root 9.232280 16.013400 -28.551200 2.313596 1.634016 0.078958
lowerback -4.149199 -0.001308 -2.460729
upperback -4.110045 -0.015060 0.167765
thorax -1.915038 0.068593 1.639581
lowerneck -15.432109 0.241637 -0.109852
upperneck 38.276309 0.475001 -0.482954
head 16.840086 0.170776 -0.114606
rclavicle -0.000000 0.000000
rhumerus -43.193797 -17.057373 -69.629112
rradius 24.352437
rwrist -4.280580
rhand -4.539702 12.971998
rfingers 7.125020
rthumb 21.223020 -15.844159
lclavicle -0.000000 0.000000
lhumerus -32.101501 15.293251 70.096069
lradius 53.228385
lwrist 1.038647
lhand -3.830305 20.011557
lfingers 7.125020
lthumb 21.919724 48.728208
rfemur -39.348688 14.792629 9.831716
rtibia 24.409326
rfoot -23.401952 -27.648816
rtoes -3.051301
lfemur -4.782069 -11.028967 -26.235415
ltibia 15.536142
lfoot -19.192684 19.478153
ltoes -4.010846
21
root 9.239730 15.970900 -28.241000 2.275409 1.634016 -0.053624
lowerback -4.133601 -0.131190 -2.316045
upperback -4.109706 -0.179599 0.591312
thorax -1.906101 -0.014457 1.949646
lowerneck -15.690153 0.283099 -0.031053
upperneck 38.305707 0.683085 -0.858369
head 16.937951 0.210390 -0.267133
rclavicle -0.000000 0.000000
rhumerus -43.711455 -17.815761 -68.592985
rradius 23.937635
rwrist -3.734373
rhand -4.826282 12.784908
rfingers 7.125020
rthumb 20.954568 -16.064044
lclavicle -0.000000 0.000000
lhumerus -33.401859 15.120844 70.060196
lradius 52.664582
lwrist 0.808138
lhand -4.279736 19.892793
lfingers 7.125020
lthumb 21.487592 48.660108
rfemur -39.035813 15.468999 10.413477
rtibia 23.982951
rfoot -21.869814 -26.624410
rtoes -1.729813
lfemur -2.493365 -11.243304 -25.827884
ltibia 15.546131
lfoot -19.244870 19.218995
ltoes -7.925085
22
root 9.241850 15.946000 -27.925100 2.227551 1.634016 -0.101849
lowerback -4.112167 -0.249026 -2.139092
upperback -4.107583 -0.330957 0.978299
thorax -1.901326 -0.091195 2.232079
lowerneck -15.930815 0.324467 0.041460
upperneck 38.339910 0.889479 -1.219646
head 17.037051 0.249776 -0.405894
rclavicle -0.000000 0.000000
rhumerus -44.161957 -18.477956 -67.670050
rradius 23.540443
rwrist -3.229462
rhand -5.112879 12.642319
rfingers 7.125020
rthumb 20.685967 -16.227760
lclavicle -0.000000 0.000000
lhumerus -34.618122 14.961682 70.021966
lradius 52.082466
lwrist 0.578367
lhand -4.708353 19.770577
lfingers 7.125020
lthumb 21.075594 48.587123
rfemur -38.704593 15.854809 11.096274
rtibia 24.001023
rfoot -20.400831 -25.638550
rtoes -0.826718
lfemur -0.398725 -11.447394 -25.422570
ltibia 15.800591
lfoot -19.294898 18.966282
ltoes -11.167755
23
root 9.242890 15.925900 -27.604900 2.155052 1.634016 -0.115441
lowerback -4.084589 -0.359841 -1.899460
upperback -4.103613 -0.474874 1.371220
thorax -1.900551 -0.164418 2.506546
lowerneck -16.169043 0.366263 0.111096
upperneck 38.379253 1.096887 -1.579879
head 17.138498 0.289410 -0.541160
rclavicle -0.000000 0.000000
rhumerus -44.593474 -19.118532 -66.777009
rradius 23.143021
rwrist -2.729764
rhand -5.404674 12.508768
rfingers 7.125020
rthumb 20.412365 -16.386136
lclavicle -0.000000 0.000000
lhumerus -35.886857 14.812975 69.980611
lradius 51.458761
lwrist 0.344924
lhand -5.127987 19.640364
lfingers 7.125020
lthumb 20.672354 48.506502
rfemur -38.341793 16.044247 12.065730
rtibia 24.481440
rfoot -18.658599 -24.522960
rtoes -0.184603
lfemur 1.624876 -11.655827 -24.978748
ltibia 16.350829
lfoot -19.349496 18.717196
ltoes -14.304862
24
root 9.243090 15.943100 -27.273700 2.043522 1.634016 -0.044065
lowerback -4.217944 -0.084247 -0.292455
upperback -4.040715 -0.139616 1.882410
thorax -1.816737 -0.026582 2.169561
lowerneck -16.026911 0.549430 0.253645
upperneck 38.556941 1.514856 -2.000623
head 17.239539 0.428618 -0.688234
rclavicle -0.000000 0.000000
rhumerus -44.662065 -20.018200 -65.939938
rradius 22.131285
rwrist -1.454522
rhand -5.389703 12.547203
rfingers 7.125020
rthumb 20.425751 -16.372936
lclavicle -0.000000 0.000000
lhumerus -38.246900 16.446821 69.471770
lradius 47.887118
lwrist 0.263186
lhand -5.253116 20.164395
lfingers 7.125020
lthumb 20.554273 49.024669
rfemur -35.919031 14.690907 15.680790
rtibia 25.976379
rfoot -16.918538 -21.341471
rtoes -1.313289
lfemur -0.262969 -9.937716 -23.348391
ltibia 23.961370
lfoot -16.244450 18.715971
ltoes -14.163566
25
root 9.241190 15.944900 -26.946700 1.959807 1.634016 -0.017028
lowerback -4.348218 0.176234 1.161318
upperback -3.975848 0.181459 2.353234
thorax -1.736699 0.104907 1.839596
lowerneck -15.905014 0.729537 0.387473
upperneck 38.733851 1.920987 -2.359754
head 17.340652 0.565171 -0.801056
rclavicle -0.000000 0.000000
rhumerus -44.680753 -20.832530 -65.168424
rradius 21.163936
rwrist -0.239147
rhand -5.366856 12.536662
rfingers 7.125020
rthumb 20.447013 -16.399142
lclavicle -0.000000 0.000000
lhumerus -40.381554 18.047730 68.969278
lradius 44.486760
lwrist 0.182491
lhand -5.364526 20.688920
lfingers 7.125020
lthumb 20.449555 49.542109
rfemur -33.586024 13.442971 19.013541
rtibia 27.016053
rfoot -15.731370 -18.631386
rtoes -2.414995
lfemur -2.152936 -8.280913 -21.839012
ltibia 31.084171
lfoot -13.302493 18.718824
ltoes -13.531074
